<svg width="116" height="31" viewBox="0 0 116 31" fill="none" xmlns="http://www.w3.org/2000/svg">
<g clip-path="url(#clip0_669_3895)">
<path d="M30.5299 0L30.5204 30.243H23.3469L23.3564 13.8303L16.3325 24.905L14.0954 24.9117L7.16399 13.8101L7.16263 30.2443L0 30.2416L0.00679953 0L7.2891 0.00134222L15.1956 12.5659L23.2503 0H30.5299Z" fill="#00C0BF"/>
<path d="M77.8032 0.00390625L77.7855 9.2827C76.3018 8.50958 74.4129 8.0747 72.4887 8.0747C64.9521 8.14986 60.7853 13.8342 61.7372 21.4352C62.3941 26.6497 66.6819 31.0536 72.0358 30.9985C74.4075 31.0281 76.2869 30.208 77.7882 28.9154L77.7814 30.2442L84.9644 30.2415V0.00390625H77.8032ZM78.4967 19.5467C78.4967 22.607 76.3236 24.7424 73.2407 24.725C70.1102 24.7411 68.0404 22.5828 68.0975 19.4917C68.0173 12.5926 78.5634 12.7362 78.4967 19.5467Z" fill="#00C0BF"/>
<path d="M96.8934 0L96.8811 30.243L89.728 30.2416V0H96.8934Z" fill="#E5F3F3"/>
<path d="M116 8.05371L115.995 14.3783C111.359 14.3179 108.377 16.1017 108.404 20.0518L108.415 30.2474L101.24 30.2447V8.80804L108.402 8.81073V10.7623C111.14 8.09264 114.249 8.12082 116 8.05371Z" fill="#E5F3F3"/>
<path d="M46.1663 30.9966C42.6972 30.9966 39.3423 29.4235 37.1597 26.7793L57.0048 15.4697C59.915 22.8788 54.2115 31.0342 46.1663 30.9952V30.9966Z" fill="#00C0BF"/>
<path d="M35.4733 24.0235C33.1492 18.8788 35.3468 12.3529 40.3499 9.62013C45.2646 6.71019 52.0682 8.09939 55.4286 12.6536L35.4733 24.0249V24.0235ZM46.1404 9.63893C39.7815 9.58926 34.9824 15.6011 36.345 21.7015L52.9522 12.2375C51.0782 10.6 48.6576 9.62685 46.139 9.63893H46.1404Z" fill="#00C0BF"/>
</g>
<defs>
<clipPath id="clip0_669_3895">
<rect width="116" height="31" fill="white"/>
</clipPath>
</defs>
</svg>
